<svg xmlns="http://www.w3.org/2000/svg" xmlns:xlink="http://www.w3.org/1999/xlink" width="750" zoomAndPan="magnify" viewBox="0 0 562.5 187.499995" height="250" preserveAspectRatio="xMidYMid meet" version="1.0"><defs><g/><clipPath id="885cb74c73"><path d="M 0.226562 16 L 35 16 L 35 173 L 0.226562 173 Z M 0.226562 16 " clip-rule="nonzero"/></clipPath><clipPath id="870b51262d"><rect x="0" width="164" y="0" height="181"/></clipPath><clipPath id="6e3fe39755"><rect x="0" width="373" y="0" height="181"/></clipPath><clipPath id="2f2d1d6b61"><rect x="0" width="41" y="0" height="85"/></clipPath></defs><g transform="matrix(1, 0, 0, 1, 12, 0)"><g clip-path="url(#870b51262d)"><g clip-path="url(#885cb74c73)"><g fill="#058fc9" fill-opacity="1"><g transform="translate(4.712666, 134.854446)"><g><path d="M 6.53125 37.34375 C 4.65625 37.34375 2.804688 37.203125 0.984375 36.921875 C -0.835938 36.640625 -2.609375 36.195312 -4.328125 35.59375 L -4.328125 18.21875 C -3.265625 18.664062 -2.1875 19.003906 -1.09375 19.234375 C -0.0078125 19.460938 1.035156 19.578125 2.046875 19.578125 C 4.378906 19.578125 6.097656 18.628906 7.203125 16.734375 C 8.316406 14.835938 8.875 11.941406 8.875 8.046875 L 8.875 -85 L 29.0625 -85 L 29.0625 9.1875 C 29.0625 15.613281 28.175781 20.882812 26.40625 25 C 24.632812 29.125 22.066406 32.1875 18.703125 34.1875 C 15.335938 36.1875 11.28125 37.238281 6.53125 37.34375 Z M 7.890625 -106.78125 C 7.890625 -110.675781 8.785156 -113.597656 10.578125 -115.546875 C 12.378906 -117.492188 15.175781 -118.46875 18.96875 -118.46875 C 22.769531 -118.46875 25.554688 -117.46875 27.328125 -115.46875 C 29.097656 -113.476562 29.984375 -110.582031 29.984375 -106.78125 C 29.984375 -103.09375 29.054688 -100.273438 27.203125 -98.328125 C 25.359375 -96.378906 22.613281 -95.40625 18.96875 -95.40625 C 15.425781 -95.40625 12.691406 -96.378906 10.765625 -98.328125 C 8.847656 -100.273438 7.890625 -103.09375 7.890625 -106.78125 Z M 7.890625 -106.78125 "/></g></g></g></g><g fill="#058fc9" fill-opacity="1"><g transform="translate(42.659803, 134.854446)"><g><path d="M 36.359375 -86.453125 C 42.734375 -86.453125 48.132812 -84.878906 52.5625 -81.734375 C 56.988281 -78.597656 60.335938 -74.160156 62.609375 -68.421875 C 64.890625 -62.679688 66.03125 -55.890625 66.03125 -48.046875 L 66.03125 -36.65625 L 25.5 -36.65625 C 25.601562 -29.21875 26.96875 -23.738281 29.59375 -20.21875 C 32.226562 -16.707031 36.253906 -14.953125 41.671875 -14.953125 C 45.265625 -14.953125 48.664062 -15.421875 51.875 -16.359375 C 55.082031 -17.296875 58.507812 -18.898438 62.15625 -21.171875 L 62.15625 -4.328125 C 58.769531 -2.304688 55.148438 -0.828125 51.296875 0.109375 C 47.453125 1.046875 43.304688 1.515625 38.859375 1.515625 C 31.066406 1.515625 24.71875 -0.238281 19.8125 -3.75 C 14.90625 -7.269531 11.3125 -12.28125 9.03125 -18.78125 C 6.75 -25.28125 5.609375 -33.007812 5.609375 -41.96875 C 5.609375 -51.53125 6.757812 -59.613281 9.0625 -66.21875 C 11.363281 -72.820312 14.789062 -77.84375 19.34375 -81.28125 C 23.90625 -84.726562 29.578125 -86.453125 36.359375 -86.453125 Z M 36.8125 -70.578125 C 33.46875 -70.578125 30.804688 -69.070312 28.828125 -66.0625 C 26.859375 -63.050781 25.800781 -58.132812 25.65625 -51.3125 L 47.28125 -51.3125 C 47.28125 -55.300781 46.875 -58.738281 46.0625 -61.625 C 45.257812 -64.507812 44.070312 -66.722656 42.5 -68.265625 C 40.9375 -69.804688 39.039062 -70.578125 36.8125 -70.578125 Z M 36.8125 -70.578125 "/></g></g></g><g fill="#058fc9" fill-opacity="1"><g transform="translate(113.696844, 134.854446)"><g><path d="M 37.109375 -16.171875 C 38.523438 -16.171875 40.03125 -16.359375 41.625 -16.734375 C 43.21875 -17.109375 44.875 -17.703125 46.59375 -18.515625 L 46.59375 -2.359375 C 44.375 -1.085938 41.9375 -0.125 39.28125 0.53125 C 36.625 1.1875 33.800781 1.515625 30.8125 1.515625 C 25.957031 1.515625 22 0.539062 18.9375 -1.40625 C 15.875 -3.351562 13.632812 -6.3125 12.21875 -10.28125 C 10.800781 -14.25 10.09375 -19.269531 10.09375 -25.34375 L 10.09375 -68.234375 L 1.75 -68.234375 L 1.75 -79.078125 L 11.6875 -84.390625 L 16.46875 -102.921875 L 30.28125 -102.921875 L 30.28125 -85 L 45.53125 -85 L 45.53125 -68.234375 L 30.28125 -68.234375 L 30.28125 -26.109375 C 30.28125 -22.765625 30.796875 -20.269531 31.828125 -18.625 C 32.867188 -16.988281 34.628906 -16.171875 37.109375 -16.171875 Z M 37.109375 -16.171875 "/></g></g></g></g></g><g transform="matrix(1, 0, 0, 1, 175, 0)"><g clip-path="url(#6e3fe39755)"><g fill="#081b40" fill-opacity="1"><g transform="translate(0.990268, 134.449754)"><g><path d="M 30.8125 1.515625 C 22.613281 1.515625 16.363281 -2.378906 12.0625 -10.171875 C 7.757812 -17.960938 5.609375 -28.765625 5.609375 -42.578125 C 5.609375 -56.441406 7.757812 -67.242188 12.0625 -74.984375 C 16.363281 -82.722656 22.382812 -86.59375 30.125 -86.59375 C 32.757812 -86.59375 35.203125 -86.132812 37.453125 -85.21875 C 39.703125 -84.3125 41.773438 -82.9375 43.671875 -81.09375 C 45.578125 -79.25 47.238281 -76.9375 48.65625 -74.15625 L 49.40625 -74.15625 C 49.257812 -77.4375 49.117188 -80.253906 48.984375 -82.609375 C 48.859375 -84.960938 48.796875 -86.953125 48.796875 -88.578125 L 48.796875 -118.09375 L 68.984375 -118.09375 L 68.984375 0 L 52.828125 0 L 50.015625 -9.328125 L 48.796875 -9.328125 C 47.179688 -6.804688 45.5 -4.75 43.75 -3.15625 C 42.007812 -1.5625 40.097656 -0.382812 38.015625 0.375 C 35.941406 1.132812 33.539062 1.515625 30.8125 1.515625 Z M 36.8125 -15.40625 C 40.851562 -15.40625 43.859375 -17.378906 45.828125 -21.328125 C 47.804688 -25.273438 48.796875 -31.472656 48.796875 -39.921875 L 48.796875 -44.78125 C 48.796875 -53.175781 47.847656 -59.304688 45.953125 -63.171875 C 44.054688 -67.046875 41.007812 -68.984375 36.8125 -68.984375 C 33.164062 -68.984375 30.46875 -66.769531 28.71875 -62.34375 C 26.976562 -57.914062 26.109375 -51.378906 26.109375 -42.734375 C 26.109375 -33.578125 27.019531 -26.734375 28.84375 -22.203125 C 30.664062 -17.671875 33.320312 -15.40625 36.8125 -15.40625 Z M 36.8125 -15.40625 "/></g></g></g><g fill="#081b40" fill-opacity="1"><g transform="translate(72.484517, 134.449754)"><g><path d="M 36.359375 -86.453125 C 42.734375 -86.453125 48.132812 -84.878906 52.5625 -81.734375 C 56.988281 -78.597656 60.335938 -74.160156 62.609375 -68.421875 C 64.890625 -62.679688 66.03125 -55.890625 66.03125 -48.046875 L 66.03125 -36.65625 L 25.5 -36.65625 C 25.601562 -29.21875 26.96875 -23.738281 29.59375 -20.21875 C 32.226562 -16.707031 36.253906 -14.953125 41.671875 -14.953125 C 45.265625 -14.953125 48.664062 -15.421875 51.875 -16.359375 C 55.082031 -17.296875 58.507812 -18.898438 62.15625 -21.171875 L 62.15625 -4.328125 C 58.769531 -2.304688 55.148438 -0.828125 51.296875 0.109375 C 47.453125 1.046875 43.304688 1.515625 38.859375 1.515625 C 31.066406 1.515625 24.71875 -0.238281 19.8125 -3.75 C 14.90625 -7.269531 11.3125 -12.28125 9.03125 -18.78125 C 6.75 -25.28125 5.609375 -33.007812 5.609375 -41.96875 C 5.609375 -51.53125 6.757812 -59.613281 9.0625 -66.21875 C 11.363281 -72.820312 14.789062 -77.84375 19.34375 -81.28125 C 23.90625 -84.726562 29.578125 -86.453125 36.359375 -86.453125 Z M 36.8125 -70.578125 C 33.46875 -70.578125 30.804688 -69.070312 28.828125 -66.0625 C 26.859375 -63.050781 25.800781 -58.132812 25.65625 -51.3125 L 47.28125 -51.3125 C 47.28125 -55.300781 46.875 -58.738281 46.0625 -61.625 C 45.257812 -64.507812 44.070312 -66.722656 42.5 -68.265625 C 40.9375 -69.804688 39.039062 -70.578125 36.8125 -70.578125 Z M 36.8125 -70.578125 "/></g></g></g><g fill="#081b40" fill-opacity="1"><g transform="translate(137.30041, 134.449754)"><g><path d="M 53.96875 -24.890625 C 53.96875 -19.117188 52.890625 -14.273438 50.734375 -10.359375 C 48.585938 -6.441406 45.476562 -3.484375 41.40625 -1.484375 C 37.332031 0.515625 32.4375 1.515625 26.71875 1.515625 C 22.613281 1.515625 18.703125 1.125 14.984375 0.34375 C 11.265625 -0.4375 7.765625 -1.640625 4.484375 -3.265625 L 4.484375 -22.84375 C 7.210938 -20.96875 10.375 -19.359375 13.96875 -18.015625 C 17.5625 -16.679688 21.203125 -16.015625 24.890625 -16.015625 C 27.722656 -16.015625 29.898438 -16.671875 31.421875 -17.984375 C 32.941406 -19.304688 33.703125 -21.226562 33.703125 -23.75 C 33.703125 -25.164062 33.394531 -26.492188 32.78125 -27.734375 C 32.175781 -28.972656 30.960938 -30.289062 29.140625 -31.6875 C 27.316406 -33.082031 24.585938 -34.6875 20.953125 -36.5 C 17.453125 -38.425781 14.460938 -40.628906 11.984375 -43.109375 C 9.503906 -45.585938 7.609375 -48.421875 6.296875 -51.609375 C 4.984375 -54.796875 4.328125 -58.414062 4.328125 -62.46875 C 4.328125 -69.957031 6.65625 -75.847656 11.3125 -80.140625 C 15.96875 -84.441406 22.34375 -86.59375 30.4375 -86.59375 C 34.582031 -86.59375 38.488281 -86.023438 42.15625 -84.890625 C 45.820312 -83.753906 49.425781 -82.097656 52.96875 -79.921875 L 47.4375 -64.359375 C 45.007812 -65.984375 42.453125 -67.347656 39.765625 -68.453125 C 37.085938 -69.566406 34.359375 -70.125 31.578125 -70.125 C 29.097656 -70.125 27.195312 -69.53125 25.875 -68.34375 C 24.5625 -67.15625 23.90625 -65.523438 23.90625 -63.453125 C 23.90625 -61.984375 24.207031 -60.71875 24.8125 -59.65625 C 25.425781 -58.59375 26.628906 -57.414062 28.421875 -56.125 C 30.222656 -54.832031 32.867188 -53.125 36.359375 -51 C 39.847656 -48.976562 42.90625 -46.773438 45.53125 -44.390625 C 48.164062 -42.015625 50.226562 -39.257812 51.71875 -36.125 C 53.21875 -32.988281 53.96875 -29.242188 53.96875 -24.890625 Z M 53.96875 -24.890625 "/></g></g></g><g fill="#081b40" fill-opacity="1"><g transform="translate(189.214936, 134.449754)"><g><path d="M 37.109375 -16.171875 C 38.523438 -16.171875 40.03125 -16.359375 41.625 -16.734375 C 43.21875 -17.109375 44.875 -17.703125 46.59375 -18.515625 L 46.59375 -2.359375 C 44.375 -1.085938 41.9375 -0.125 39.28125 0.53125 C 36.625 1.1875 33.800781 1.515625 30.8125 1.515625 C 25.957031 1.515625 22 0.539062 18.9375 -1.40625 C 15.875 -3.351562 13.632812 -6.3125 12.21875 -10.28125 C 10.800781 -14.25 10.09375 -19.269531 10.09375 -25.34375 L 10.09375 -68.234375 L 1.75 -68.234375 L 1.75 -79.078125 L 11.6875 -84.390625 L 16.46875 -102.921875 L 30.28125 -102.921875 L 30.28125 -85 L 45.53125 -85 L 45.53125 -68.234375 L 30.28125 -68.234375 L 30.28125 -26.109375 C 30.28125 -22.765625 30.796875 -20.269531 31.828125 -18.625 C 32.867188 -16.988281 34.628906 -16.171875 37.109375 -16.171875 Z M 37.109375 -16.171875 "/></g></g></g><g fill="#081b40" fill-opacity="1"><g transform="translate(232.250286, 134.449754)"><g><path d="M 36.359375 -86.453125 C 42.734375 -86.453125 48.132812 -84.878906 52.5625 -81.734375 C 56.988281 -78.597656 60.335938 -74.160156 62.609375 -68.421875 C 64.890625 -62.679688 66.03125 -55.890625 66.03125 -48.046875 L 66.03125 -36.65625 L 25.5 -36.65625 C 25.601562 -29.21875 26.96875 -23.738281 29.59375 -20.21875 C 32.226562 -16.707031 36.253906 -14.953125 41.671875 -14.953125 C 45.265625 -14.953125 48.664062 -15.421875 51.875 -16.359375 C 55.082031 -17.296875 58.507812 -18.898438 62.15625 -21.171875 L 62.15625 -4.328125 C 58.769531 -2.304688 55.148438 -0.828125 51.296875 0.109375 C 47.453125 1.046875 43.304688 1.515625 38.859375 1.515625 C 31.066406 1.515625 24.71875 -0.238281 19.8125 -3.75 C 14.90625 -7.269531 11.3125 -12.28125 9.03125 -18.78125 C 6.75 -25.28125 5.609375 -33.007812 5.609375 -41.96875 C 5.609375 -51.53125 6.757812 -59.613281 9.0625 -66.21875 C 11.363281 -72.820312 14.789062 -77.84375 19.34375 -81.28125 C 23.90625 -84.726562 29.578125 -86.453125 36.359375 -86.453125 Z M 36.8125 -70.578125 C 33.46875 -70.578125 30.804688 -69.070312 28.828125 -66.0625 C 26.859375 -63.050781 25.800781 -58.132812 25.65625 -51.3125 L 47.28125 -51.3125 C 47.28125 -55.300781 46.875 -58.738281 46.0625 -61.625 C 45.257812 -64.507812 44.070312 -66.722656 42.5 -68.265625 C 40.9375 -69.804688 39.039062 -70.578125 36.8125 -70.578125 Z M 36.8125 -70.578125 "/></g></g></g><g fill="#081b40" fill-opacity="1"><g transform="translate(297.066196, 134.449754)"><g><path d="M 28.921875 -118.09375 L 28.921875 -66.71875 C 28.921875 -63.125 28.867188 -59.601562 28.765625 -56.15625 C 28.660156 -52.71875 28.40625 -49.332031 28 -46 L 28.609375 -46 C 29.523438 -48.21875 30.523438 -50.300781 31.609375 -52.25 C 32.703125 -54.195312 33.675781 -55.957031 34.53125 -57.53125 L 51 -85 L 72.703125 -85 L 50.703125 -50.25 L 73.84375 0 L 51.765625 0 L 36.8125 -35.140625 L 28.921875 -27.328125 L 28.921875 0 L 8.734375 0 L 8.734375 -118.09375 Z M 28.921875 -118.09375 "/></g></g></g></g></g><g transform="matrix(1, 0, 0, 1, 16, 0)"><g clip-path="url(#2f2d1d6b61)"><g fill="#081b40" fill-opacity="1"><g transform="translate(0.712666, 38.386521)"><g><path d="M 7.890625 -11 C 7.890625 -15.144531 8.925781 -18.300781 11 -20.46875 C 13.070312 -22.644531 16.078125 -23.734375 20.015625 -23.734375 C 23.765625 -23.734375 26.675781 -22.660156 28.75 -20.515625 C 30.820312 -18.367188 31.859375 -15.195312 31.859375 -11 C 31.859375 -6.90625 30.796875 -3.753906 28.671875 -1.546875 C 26.546875 0.648438 23.660156 1.75 20.015625 1.75 C 16.328125 1.75 13.382812 0.648438 11.1875 -1.546875 C 8.988281 -3.753906 7.890625 -6.90625 7.890625 -11 Z M 7.890625 -11 "/></g></g></g></g></g></svg>